#N canvas 166 25 649 323 12;
#X obj 113 125 hsl 120 15 0 10000 0 0 empty empty CENTRE-FREQUENCY
12 8 0 10 -262144 -1 -1 0 1;
#X obj 41 67 inlet~;
#X floatatom 244 124 7 0 10000 0 - - -;
#X text 112 139 0 Hz;
#X text 105 136 |;
#X text 230 169 |;
#X text 191 139 10 kHz;
#X obj 281 104 tgl 15 0 empty empty empty 17 7 0 10 -262144 -1 -1 0
1;
#X obj 41 197 spigot~;
#X text 302 102 <- Toggle On/Off;
#X obj 318 23 loadbang;
#X obj 318 47 0;
#X text 386 23 Start everything in OFF mode;
#X obj 113 158 hsl 120 15 0 100 0 0 empty empty Q-FACTOR 40 8 0 10
-262144 -1 -1 0 1;
#X text 105 169 |;
#X floatatom 244 157 5 0 10000 0 - - -;
#X text 209 172 100;
#X text 112 172 0;
#X obj 41 238 bp~;
#X obj 41 280 outlet~;
#X obj 259 104 bng 15 250 50 0 empty empty empty 17 7 0 10 -262144
-1 -1;
#X text 220 104 RESET;
#X obj 259 61 inlet;
#X msg 218 79 0;
#X connect 0 0 2 0;
#X connect 1 0 8 0;
#X connect 2 0 18 1;
#X connect 7 0 8 2;
#X connect 8 0 18 0;
#X connect 10 0 11 0;
#X connect 11 0 7 0;
#X connect 11 0 0 0;
#X connect 11 0 13 0;
#X connect 13 0 15 0;
#X connect 15 0 18 2;
#X connect 18 0 19 0;
#X connect 20 0 23 0;
#X connect 22 0 20 0;
#X connect 23 0 7 0;
#X connect 23 0 0 0;
#X connect 23 0 13 0;
#X coords 0 -1 1 1 200 90 1 100 100;
