#N canvas 35 25 1309 847 12;
#X obj 136 312 FX-delay~;
#X obj 364 180 FX-BPfilter~;
#X obj 364 278 FX-flanger~;
#X obj 364 105 FX-HLPfilter~;
#X obj 364 513 FX-ringmod~;
#X obj 365 396 FX-tremolo~;
#X obj 146 395 FX-vibrato~;
#X text -14 635 Have to use send and recieve to avid DSP loop;
#X text 132 164 H/L-PASS;
#X text 125 184 BAND-PASS;
#X text 153 204 DELAY;
#X text 139 224 FLANGER;
#X obj 106 313 cnv 20 10 305 empty empty empty 5 9 0 16 -228856 -1
0;
#X obj 106 603 cnv 20 250 20 empty empty empty 5 9 0 16 -228856 -1
0;
#X obj 111 313 cnv 20 20 20 empty empty empty 5 9 0 16 -228856 -1 0
;
#X obj 125 542 cnv 20 230 3 empty empty * 5 14 0 16 -228856 -228856
0;
#X text 139 243 VIBRATO;
#X text 139 264 TREMOLO;
#X text 132 283 RING-MOD;
#X text 153 143 INPUT;
#X obj 576 172 s~ \$0-HLP;
#X obj 577 270 s~ \$0-BP;
#X obj 576 389 s~ \$0-flanger;
#X obj 576 506 s~ \$0-tremolo;
#X obj 576 623 s~ \$0-ringmod;
#X obj 15 386 s~ \$0-delay;
#X obj 2 534 s~ \$0-vibrato;
#X obj 197 78 r~ \$0-BP;
#X obj 166 55 r~ \$0-HLP;
#X obj 318 33 r~ \$0-tremolo;
#X obj 257 55 r~ \$0-flanger;
#X obj 358 56 r~ \$0-ringmod;
#X obj 136 32 inlet~;
#X obj 227 32 r~ \$0-delay;
#X obj 288 78 r~ \$0-vibrato;
#X obj 385 738 outlet~;
#X obj 488 738 outlet~;
#X obj 591 738 outlet~;
#X obj 42 737 outlet~;
#X obj 116 738 outlet~;
#X obj 189 738 outlet~;
#X obj 282 738 outlet~;
#X obj 116 711 r~ \$0-BP;
#X obj 42 711 r~ \$0-HLP;
#X obj 488 713 r~ \$0-tremolo;
#X obj 282 713 r~ \$0-flanger;
#X obj 591 713 r~ \$0-ringmod;
#X obj 189 713 r~ \$0-delay;
#X obj 385 713 r~ \$0-vibrato;
#X obj 106 105 FX-patch-panel~;
#X obj 577 366 r~ \$0-flangfdbck;
#X obj 576 483 r~ \$0-tremfdbck;
#X obj 576 600 r~ \$0-ringfdbck;
#X obj -4 363 r~ \$0-dlyfdbck;
#X obj -5 511 r~ \$0-vibfdbck;
#X text 771 93 FEEDBACK INLETS;
#X obj 733 163 s~ \$0-flangfdbck;
#X obj 853 164 s~ \$0-tremfdbck;
#X obj 684 141 s~ \$0-dlyfdbck;
#X obj 790 141 s~ \$0-vibfdbck;
#X obj 896 141 s~ \$0-ringfdbck;
#X obj 733 115 inlet~;
#X obj 853 116 inlet~;
#X obj 684 115 inlet~;
#X obj 790 116 inlet~;
#X obj 902 116 inlet~;
#X text 245 567 ON..[X] OFF.[ ], f 7;
#X text 162 566 toggles key:;
#X text 148 545 FX-BOARD;
#X text 271 547 RESET ALL;
#X obj 338 548 bng 15 250 50 0 empty empty empty 17 7 0 10 -262144
-1 -1;
#X obj 339 640 s \$0-reset;
#X obj 557 72 r \$0-reset;
#X obj 22 297 r \$0-reset;
#X msg 19 68 0 0 0 0 0 0 0 0;
#X obj 106 395 cnv 20 35 20 empty empty empty 5 9 0 16 -228856 -1 0
;
#X connect 0 0 25 0;
#X connect 1 0 21 0;
#X connect 2 0 22 0;
#X connect 3 0 20 0;
#X connect 4 0 24 0;
#X connect 5 0 23 0;
#X connect 6 0 26 0;
#X connect 27 0 49 3;
#X connect 28 0 49 2;
#X connect 29 0 49 7;
#X connect 30 0 49 5;
#X connect 31 0 49 8;
#X connect 32 0 49 1;
#X connect 33 0 49 4;
#X connect 34 0 49 6;
#X connect 42 0 39 0;
#X connect 43 0 38 0;
#X connect 44 0 36 0;
#X connect 45 0 41 0;
#X connect 46 0 37 0;
#X connect 47 0 40 0;
#X connect 48 0 35 0;
#X connect 49 0 3 0;
#X connect 49 1 1 0;
#X connect 49 2 0 0;
#X connect 49 3 2 0;
#X connect 49 4 6 0;
#X connect 49 5 5 0;
#X connect 49 6 4 0;
#X connect 50 0 2 1;
#X connect 51 0 5 1;
#X connect 52 0 4 1;
#X connect 53 0 0 1;
#X connect 54 0 6 1;
#X connect 61 0 56 0;
#X connect 62 0 57 0;
#X connect 63 0 58 0;
#X connect 64 0 59 0;
#X connect 65 0 60 0;
#X connect 70 0 71 0;
#X connect 72 0 3 2;
#X connect 72 0 1 1;
#X connect 72 0 2 2;
#X connect 72 0 5 2;
#X connect 72 0 4 2;
#X connect 73 0 0 2;
#X connect 73 0 6 2;
#X connect 73 0 74 0;
#X connect 74 0 49 0;
#X coords 0 -1 1 1 470 528 2 100 100;
