#N canvas 697 47 560 745 12;
#X obj 2 3 cnv 15 301 42 empty empty FX-delay~ 20 20 2 37 -233017 -1
0;
#X obj 305 4 cnv 15 250 40 empty empty RobBowland 135 25 0 18 -128992
-233080 0;
#N canvas 0 25 450 278 (subpatch) 0;
#X coords 0 1 100 -1 302 42 1 0 0;
#X restore 2 3 graph;
#N canvas 382 141 749 319 (subpatch) 0;
#X coords 0 -1 1 1 252 42 2 100 100;
#X restore 304 3 pd;
#X obj 22 40 cnv 4 4 4 empty empty Delay_Audio_Effects 0 28 2 18 -233017
-1 0;
#X obj 2 707 cnv 15 552 21 empty \$0-pddp.cnv.footer empty 20 12 0
14 -228856 -66577 0;
#X obj 2 668 cnv 3 550 3 empty \$0-pddp.cnv.more_info note 8 12 0 13
-228856 -1 0;
#X obj 2 492 cnv 3 550 3 empty \$0-pddp.cnv.inlets inlets 8 12 0 13
-228856 -1 0;
#X obj 2 606 cnv 3 550 3 empty \$0-pddp.cnv.outlets outlets 8 12 0
13 -228856 -1 0;
#X obj 85 502 cnv 17 3 17 empty empty 0 5 9 0 16 -228856 -162280 0
;
#X obj 85 526 cnv 17 3 40 empty empty 1 5 9 0 16 -228856 -162280 0
;
#X obj 85 614 cnv 17 3 35 empty empty 0 5 9 0 16 -228856 -162280 0
;
#X text 95 672 Formatting for this -help file was adapted from those
seen in the EL Locus Solus' ELSE library., f 65;
#X text 115 614 signal -;
#X text 400 268 when off[ ] the outgoing signal is blocked, f 19;
#X text 379 252 <- toggle on[X]/off[ ];
#X text 115 502 signal -;
#X text 29 112 It provides a slider to control the delay amount (in
msecs). Delays below 20ms will result in a COMB FILTERING effect. Delays
between 20-100ms will result in a light REVERB effect. Delays above
100ms will result in an ECHO effect. Buttons are provided to quickly
move to these thresholds., f 77;
#X text 28 167 Providing a FEEDBACK signal will enhance these effects.
, f 77;
#X obj 157 250 FX-delay~;
#X text 13 303 quick move buttons ->;
#X text 180 502 the audio signal that the effect will be applied to
;
#X text 115 526 signal -;
#N canvas 0 50 450 300 (subpatch) 0;
#X array \$0-Original_Signal 1000 float 0;
#X coords 0 1 999 -1 150 50 1 0 0;
#X restore 389 335 graph;
#N canvas 0 50 450 300 (subpatch) 0;
#X array \$0-Delayed_Signal 1000 float 0;
#X coords 0 1 999 -1 150 50 1 0 0;
#X restore 390 406 graph;
#X obj 169 339 r \$0-metro;
#X text 181 615 the delayed input audio signal \, for this to actually
give the described audio effects it will need to be mixed with the
original non-delayed signal, f 52;
#X obj 250 401 tgl 15 0 empty empty empty 17 7 0 10 -262144 -1 -1 0
1;
#X obj 250 441 metro;
#X floatatom 297 442 5 0 0 0 - - -;
#X obj 297 397 loadbang;
#X text 99 400 toggle visualisers ->;
#X obj 167 441 s \$0-metro;
#X obj 225 204 r \$0-metro;
#X obj 157 204 osc~ 100;
#X obj 157 366 tabwrite~ \$0-Delayed_Signal;
#X obj 170 228 tabwrite~ \$0-Original_Signal;
#X msg 297 420 200;
#X text 181 525 optional FEEDBACK signal \, for the best effect this
should be the audio signal that is the result of applying this effect
to a signal, f 51;
#X text 29 82 The [FX-delay~] abstraction provides an interface for
applying delay effects to an audio signal \, with the option to apply
a FEEDBACK signal., f 77;
#X obj 85 574 cnv 17 3 17 empty empty 2 5 9 0 16 -228856 -162280 0
;
#X text 128 574 bang -;
#X text 180 574 external reset trigger, f 53;
#X connect 19 0 35 0;
#X connect 25 0 35 0;
#X connect 27 0 28 0;
#X connect 28 0 32 0;
#X connect 29 0 28 1;
#X connect 30 0 37 0;
#X connect 33 0 36 0;
#X connect 34 0 19 0;
#X connect 34 0 36 0;
#X connect 37 0 29 0;
