#N canvas 720 25 720 410 12;
#X obj 100 74 delwrite~ \$0-delayline 1000;
#X obj 100 31 inlet~;
#X obj 152 31 inlet~;
#X text 201 29 second inlet for feedback;
#X obj 325 188 sig~;
#X floatatom 325 160 5 0 0 0 - - -;
#X obj 117 122 hsl 150 15 1 1000 1 0 empty empty DELAY 60 8 0 10 -262144
-1 -1 0 1;
#X obj 325 268 outlet~;
#X obj 140 155 bng 15 250 50 0 empty empty empty 17 7 0 10 -262144
-1 -1;
#X text 110 133 |;
#X text 264 133 |;
#X text 115 136 1ms;
#X text 226 136 1000ms;
#X text 115 154 1ms;
#X obj 193 155 bng 15 250 50 0 empty empty empty 17 7 0 10 -262144
-1 -1;
#X text 161 154 20ms;
#X obj 253 155 bng 15 250 50 0 empty empty empty 17 7 0 10 -262144
-1 -1;
#X text 214 154 100ms;
#X floatatom 274 122 5 1 1000 0 - - -;
#X obj 302 103 tgl 15 0 empty empty empty 17 7 0 10 -262144 -1 -1 0
1;
#X obj 325 240 spigot~;
#X obj 325 214 vd~ \$0-delayline;
#X msg 37 195 1;
#X msg 76 195 20;
#X msg 115 195 100;
#X msg 311 77 0;
#X obj 311 52 inlet;
#X connect 1 0 0 0;
#X connect 2 0 0 0;
#X connect 4 0 21 0;
#X connect 5 0 4 0;
#X connect 6 0 5 0;
#X connect 6 0 18 0;
#X connect 8 0 22 0;
#X connect 14 0 23 0;
#X connect 16 0 24 0;
#X connect 19 0 20 2;
#X connect 20 0 7 0;
#X connect 21 0 20 0;
#X connect 22 0 6 0;
#X connect 23 0 6 0;
#X connect 24 0 6 0;
#X connect 25 0 19 0;
#X connect 25 0 6 0;
#X connect 26 0 25 0;
#X coords 0 -1 1 1 220 75 1 100 100;
