#N canvas 506 113 720 583 12;
#X obj 116 143 hsl 128 15 0 50 0 0 empty empty OSC-FREQUENCY 30 8 0
10 -262144 -1 -1 0 1;
#X obj 185 104 vradio 15 1 0 2 empty empty empty 0 -8 0 10 -262144
-1 -1 0;
#X floatatom 251 142 5 0 50 0 - - -;
#X obj 257 104 bng 15 250 50 0 empty empty empty 17 7 0 10 -262144
-1 -1;
#X text 246 117 RESET;
#X obj 375 158 LFO~;
#X obj 281 104 tgl 15 0 empty empty empty 17 7 0 10 -262144 -1 -1 0
1;
#X text 112 156 0Hz;
#X text 218 156 50Hz;
#X text 200 102 SINE;
#X text 200 117 SQUARE;
#X msg 310 123 0;
#X obj 390 31 loadbang;
#X msg 390 57 0;
#X text 218 191 20ms;
#X text 111 191 0ms;
#X obj 100 74 delwrite~ \$0-delayline 1000;
#X obj 100 31 inlet~;
#X obj 152 31 inlet~;
#X text 201 31 second inlet for feedback;
#X obj 376 382 outlet~;
#X obj 376 351 spigot~;
#X obj 376 323 vd~ \$0-delayline;
#X obj 516 274 sig~;
#X obj 376 292 +~;
#X floatatom 251 176 5 0 50 0 - - -;
#X obj 116 177 hsl 128 15 0 10 0 0 empty empty MAX-DELAY 40 8 0 10
-262144 -1 -1 0 1;
#X obj 187 234 * 2;
#X obj 458 31 inlet;
#X connect 0 0 2 0;
#X connect 1 0 5 2;
#X connect 2 0 5 0;
#X connect 3 0 5 3;
#X connect 3 0 11 0;
#X connect 5 0 24 0;
#X connect 5 2 23 0;
#X connect 6 0 21 2;
#X connect 11 0 0 0;
#X connect 11 0 6 0;
#X connect 11 0 26 0;
#X connect 12 0 13 0;
#X connect 12 0 11 0;
#X connect 13 0 6 0;
#X connect 17 0 16 0;
#X connect 18 0 16 0;
#X connect 21 0 20 0;
#X connect 22 0 21 0;
#X connect 23 0 24 1;
#X connect 24 0 22 0;
#X connect 26 0 27 0;
#X connect 26 0 5 1;
#X connect 27 0 25 0;
#X connect 28 0 11 0;
#X coords 0 -1 1 1 200 110 1 100 100;
