#N canvas 101 77 564 726 12;
#X obj 2 3 cnv 15 301 42 empty empty FX-flanger~ 20 20 2 37 -233017
-1 0;
#X obj 305 4 cnv 15 250 40 empty empty RobBowland 135 25 0 18 -128992
-233080 0;
#N canvas 0 25 450 278 (subpatch) 0;
#X coords 0 1 100 -1 302 42 1 0 0;
#X restore 2 3 graph;
#N canvas 382 141 749 319 (subpatch) 0;
#X coords 0 -1 1 1 252 42 2 100 100;
#X restore 304 3 pd;
#X obj 22 40 cnv 4 4 4 empty empty Flanging_Audio_Effect 0 28 2 18
-233017 -1 0;
#X obj 2 666 cnv 15 552 21 empty \$0-pddp.cnv.footer empty 20 12 0
14 -228856 -66577 0;
#X obj 2 627 cnv 3 550 3 empty \$0-pddp.cnv.more_info note 8 12 0 13
-228856 -1 0;
#X obj 2 478 cnv 3 550 3 empty \$0-pddp.cnv.inlets inlets 8 12 0 13
-228856 -1 0;
#X obj 2 585 cnv 3 550 3 empty \$0-pddp.cnv.outlets outlets 8 12 0
13 -228856 -1 0;
#X obj 85 488 cnv 17 3 17 empty empty 0 5 9 0 16 -228856 -162280 0
;
#X obj 85 512 cnv 17 3 40 empty empty 1 5 9 0 16 -228856 -162280 0
;
#X obj 85 593 cnv 17 3 17 empty empty 0 5 9 0 16 -228856 -162280 0
;
#X text 95 631 Formatting for this -help file was adapted from those
seen in the EL Locus Solus' ELSE library., f 65;
#X text 115 593 signal -;
#X text 405 265 when off[ ] the outgoing signal is blocked, f 19;
#X text 384 250 <- toggle on[X]/off[ ];
#X text 115 488 signal -;
#X text 180 488 the audio signal that the effect will be applied to
;
#X text 115 512 signal -;
#X text 181 511 optional FEEDBACK signal \, for the best effect this
should be the audio signal that is the result of applying this effect
to a signal, f 51;
#X text 268 191 generate a SINE or SQUARE wave from the [LFO~], f
26;
#X text 268 218 |v, f 1;
#X text 24 323 LFO signal AMPLITUDE ->;
#X obj 181 380 output~;
#X obj 181 211 osc~ 200;
#X text 20 338 (amplitude of outgoing audio), f 22;
#X obj 181 247 FX-flanger~;
#X text 11 288 OSCillation FREQUENCY* ->;
#X text 15 393 *(how frequently the applied DELAY oscillate between
0 and the selected MAX-DELAY), f 24;
#X text 29 82 The [FX-flanger~] anstraction provides an interface for
applying a FLANGING effect to incoming audio signals through the use
of an underlying [LFO~] \, with an additional option to apply a FEEDBACK
signal., f 77;
#X text 26 125 Controls are provided to modify the underlying [LFO~]
\, allowing for alterations to the maximum delay variation (it will
always vary from 0 to the max delay) and the frequency that this variation
occurs., f 78;
#X text 181 594 the flanged input audio signal, f 52;
#X obj 85 558 cnv 17 3 17 empty empty 2 5 9 0 16 -228856 -162280 0
;
#X text 128 558 bang -;
#X text 180 558 external reset trigger, f 53;
#X connect 24 0 26 0;
#X connect 26 0 23 0;
#X connect 26 0 23 1;
