#N canvas 32 108 558 614 12;
#X obj 2 3 cnv 15 301 42 empty empty FX-HLPfilter~ 20 20 2 37 -233017
-1 0;
#X obj 305 4 cnv 15 250 40 empty empty RobBowland 135 25 0 18 -128992
-233080 0;
#N canvas 0 25 450 278 (subpatch) 0;
#X coords 0 1 100 -1 302 42 1 0 0;
#X restore 2 3 graph;
#N canvas 382 141 749 319 (subpatch) 0;
#X coords 0 -1 1 1 252 42 2 100 100;
#X restore 304 3 pd;
#X obj 22 40 cnv 4 4 4 empty empty Low-_&_High-Pass_Audio_Filter 0
28 2 18 -233017 -1 0;
#X obj 2 576 cnv 15 552 21 empty \$0-pddp.cnv.footer empty 20 12 0
14 -228856 -66577 0;
#X obj 2 537 cnv 3 550 3 empty \$0-pddp.cnv.more_info note 8 12 0 13
-228856 -1 0;
#X obj 2 398 cnv 3 550 3 empty \$0-pddp.cnv.inlets inlets 8 12 0 13
-228856 -1 0;
#X obj 2 496 cnv 3 550 3 empty \$0-pddp.cnv.outlets outlets 8 12 0
13 -228856 -1 0;
#X obj 85 408 cnv 17 3 25 empty empty 0 5 9 0 16 -228856 -162280 0
;
#X obj 85 442 cnv 17 3 17 empty empty 1 5 9 0 16 -228856 -162280 0
;
#X obj 85 504 cnv 17 3 17 empty empty 0 5 9 0 16 -228856 -162280 0
;
#X text 95 541 Formatting for this -help file was adapted from those
seen in the EL Locus Solus' ELSE library., f 65;
#X text 115 504 signal -;
#X text 392 253 when off[ ] the outgoing signal is blocked, f 19;
#X text 371 237 <- toggle on[X]/off[ ];
#X text 25 238 select filter mode ->;
#X text 49 269 select cut-off frequency, f 15;
#X text 152 269 ->;
#X obj 170 196 osc~ 250;
#X msg 266 197 500;
#X text 29 113 It provides a slider for selecting the cut-off frequency
that \, when High-pass is selected \, will attenuate all frequencies
lower than the selected cut-off frequency and will attenuate all frequencies
higher than the selected cut-off frequency when Low-pass is selected.
, f 77;
#X obj 170 311 env~;
#X floatatom 170 343 5 0 0 0 - - -;
#X text 33 343 signal amplitude ->;
#X text 217 344 see how the signal amplitude changes as frequencies
beyond the cut-off are attenuated, f 45;
#X text 115 408 signal -;
#X text 180 408 the audio signal that the filtering will be applied
to, f 53;
#X text 121 442 float -;
#X text 181 442 sets value for CUT-OFF FREQUENCY slider in Hertz,
f 52;
#X text 181 505 the filtered audio signal, f 52;
#X text 29 82 The [FX-HLPfilter~] provides an interface for applying
a High- or Low-pass filter to an incoming audio signal \, depending
on the option selected., f 77;
#X obj 170 234 FX-HLPfilter~;
#X obj 85 468 cnv 17 3 17 empty empty 2 5 9 0 16 -228856 -162280 0
;
#X text 128 468 bang -;
#X text 180 468 external reset trigger, f 53;
#X connect 19 0 32 0;
#X connect 20 0 32 1;
#X connect 22 0 23 0;
#X connect 32 0 22 0;
