#N canvas 203 526 606 348 12;
#X obj 113 133 hsl 120 15 0 10000 0 0 empty empty empty -2 -8 0 10
-262144 -1 -1 0 1;
#X obj 41 67 inlet~;
#X obj 120 297 outlet~;
#X msg 92 185 0;
#X msg 134 185 1;
#X floatatom 92 213 5 0 0 0 - - -;
#X obj 165 104 bng 17 250 50 0 \$0-slowp \$0-rlowp empty 17 7 0 10
-258699 -1 -1;
#X obj 255 104 bng 17 250 50 0 \$0-ship \$0-rhip empty 17 7 0 10 -258699
-1 -1;
#X text 105 105 LOW-PASS;
#X text 188 105 HIGH-PASS;
#X msg 276 264 color 13;
#X msg 206 264 color 16;
#X msg 358 265 color 13;
#X msg 428 265 color 16;
#X obj 83 264 lop~;
#X obj 150 264 hip~;
#X text 117 132 CUT-OFF FREQUENCY;
#X floatatom 241 132 7 0 10000 0 - - -;
#X text 112 147 0 Hz;
#X text 105 144 |;
#X text 230 144 |;
#X text 191 147 10 kHz;
#X obj 280 105 tgl 15 0 empty empty empty 17 7 0 10 -262144 -1 -1 0
1;
#X obj 41 127 spigot~;
#X obj 278 223 r \$0-slowp;
#X obj 278 298 s \$0-rlowp;
#X obj 359 223 r \$0-ship;
#X obj 360 298 s \$0-rhip;
#X text 289 202 COLOUR CONTROLLER;
#X obj 274 75 1;
#X obj 95 66 inlet;
#X text 303 106 <- Toggle On/Off;
#X obj 318 23 loadbang;
#X obj 318 47 0;
#X msg 245 44 color 13;
#X text 386 23 Start everything in OFF mode;
#X obj 352 47 inlet;
#X msg 345 75 0;
#X msg 172 185 2;
#X obj 83 236 demux~ . . .;
#X connect 0 0 14 1;
#X connect 0 0 15 1;
#X connect 0 0 17 0;
#X connect 1 0 23 0;
#X connect 3 0 5 0;
#X connect 4 0 5 0;
#X connect 5 0 39 0;
#X connect 6 0 3 0;
#X connect 6 0 29 0;
#X connect 7 0 4 0;
#X connect 7 0 29 0;
#X connect 10 0 27 0;
#X connect 11 0 25 0;
#X connect 12 0 25 0;
#X connect 13 0 27 0;
#X connect 14 0 2 0;
#X connect 15 0 2 0;
#X connect 22 0 23 2;
#X connect 23 0 39 0;
#X connect 24 0 10 0;
#X connect 24 0 11 0;
#X connect 26 0 12 0;
#X connect 26 0 13 0;
#X connect 29 0 22 0;
#X connect 30 0 0 0;
#X connect 32 0 33 0;
#X connect 32 0 34 0;
#X connect 33 0 22 0;
#X connect 34 0 6 0;
#X connect 34 0 7 0;
#X connect 36 0 37 0;
#X connect 37 0 22 0;
#X connect 37 0 0 0;
#X connect 37 0 34 0;
#X connect 37 0 38 0;
#X connect 38 0 5 0;
#X connect 39 0 14 0;
#X connect 39 1 15 0;
#X coords 0 -1 1 1 200 67 2 100 100;
