#N canvas 720 25 720 847 12;
#X obj 226 137 vradio 20 1 0 8 empty empty empty 0 -8 0 10 -262144
-1 -1 0;
#X obj 246 137 vradio 20 1 0 8 empty empty empty 0 -8 0 10 -262144
-1 -1 0;
#X floatatom 180 344 2 0 0 0 - - -;
#X floatatom 203 344 2 0 0 0 - - -;
#X floatatom 226 344 2 0 0 0 - - -;
#X obj 266 137 vradio 20 1 0 8 empty empty empty 0 -8 0 10 -262144
-1 -1 0;
#X obj 286 137 vradio 20 1 0 8 empty empty empty 0 -8 0 10 -262144
-1 -1 0;
#X obj 306 137 vradio 20 1 0 8 empty empty empty 0 -8 0 10 -262144
-1 -1 0;
#X floatatom 249 344 2 0 0 0 - - -;
#X floatatom 272 344 2 0 0 0 - - -;
#X floatatom 295 344 2 0 0 0 - - -;
#X obj 408 106 inlet~;
#X obj 415 127 inlet~;
#X obj 425 147 inlet~;
#X obj 435 167 inlet~;
#X obj 445 187 inlet~;
#X obj 455 207 inlet~;
#X obj 465 227 inlet~;
#X obj 474 249 inlet~;
#X obj 455 107 s~ \$0-sig0;
#X obj 465 127 s~ \$0-sig1;
#X obj 475 147 s~ \$0-sig2;
#X obj 485 167 s~ \$0-sig3;
#X obj 495 187 s~ \$0-sig4;
#X obj 505 207 s~ \$0-sig5;
#X obj 515 227 s~ \$0-sig6;
#X obj 96 429 r~ \$0-sig0;
#X obj 176 429 r~ \$0-sig1;
#X obj 96 453 r~ \$0-sig2;
#X obj 176 453 r~ \$0-sig3;
#X obj 96 478 r~ \$0-sig4;
#X obj 176 478 r~ \$0-sig5;
#X obj 96 503 r~ \$0-sig6;
#X obj 176 503 r~ \$0-sig7;
#X obj 195 14 inlet;
#X floatatom 195 76 2 0 0 0 - - -;
#X floatatom 219 76 2 0 0 0 - - -;
#X floatatom 244 76 2 0 0 0 - - -;
#X floatatom 268 76 2 0 0 0 - - -;
#X floatatom 293 76 2 0 0 0 - - -;
#X floatatom 318 76 2 0 0 0 - - -;
#X obj 96 551 outlet~;
#X text 85 728 OUTLET 'PACKAGES';
#X obj 524 249 s~ \$0-sig7;
#X obj 260 429 r~ \$0-sig0;
#X obj 340 429 r~ \$0-sig1;
#X obj 260 453 r~ \$0-sig2;
#X obj 340 453 r~ \$0-sig3;
#X obj 260 478 r~ \$0-sig4;
#X obj 340 478 r~ \$0-sig5;
#X obj 260 503 r~ \$0-sig6;
#X obj 340 503 r~ \$0-sig7;
#X obj 165 552 outlet~;
#X obj 435 428 r~ \$0-sig0;
#X obj 515 430 r~ \$0-sig1;
#X obj 435 452 r~ \$0-sig2;
#X obj 515 454 r~ \$0-sig3;
#X obj 435 477 r~ \$0-sig4;
#X obj 515 479 r~ \$0-sig5;
#X obj 435 502 r~ \$0-sig6;
#X obj 515 504 r~ \$0-sig7;
#X obj 235 552 outlet~;
#X obj 95 586 r~ \$0-sig0;
#X obj 175 586 r~ \$0-sig1;
#X obj 95 610 r~ \$0-sig2;
#X obj 175 610 r~ \$0-sig3;
#X obj 95 635 r~ \$0-sig4;
#X obj 175 635 r~ \$0-sig5;
#X obj 95 660 r~ \$0-sig6;
#X obj 175 660 r~ \$0-sig7;
#X obj 325 718 outlet~;
#X obj 95 685 mux~ . . . . . . . .;
#X obj 265 586 r~ \$0-sig0;
#X obj 345 586 r~ \$0-sig1;
#X obj 265 610 r~ \$0-sig2;
#X obj 345 610 r~ \$0-sig3;
#X obj 265 635 r~ \$0-sig4;
#X obj 345 635 r~ \$0-sig5;
#X obj 265 660 r~ \$0-sig6;
#X obj 345 660 r~ \$0-sig7;
#X obj 390 718 outlet~;
#X obj 265 685 mux~ . . . . . . . .;
#X obj 435 586 r~ \$0-sig0;
#X obj 515 586 r~ \$0-sig1;
#X obj 435 610 r~ \$0-sig2;
#X obj 515 610 r~ \$0-sig3;
#X obj 435 635 r~ \$0-sig4;
#X obj 515 635 r~ \$0-sig5;
#X obj 435 660 r~ \$0-sig6;
#X obj 515 660 r~ \$0-sig7;
#X obj 459 718 outlet~;
#X text 0 97 Put channel labels here ->, f 14;
#X text 84 746 Arranged in this way to make expansion/ modification
a bit easier. Note that the Left to Right arrangement of the outlets
is critical for the outlets making sense in the abstraction., f 69
;
#X text 404 85 Stagger to ENSURE correct inlet order;
#X obj 96 528 mux~ . . . . . . . .;
#X obj 260 528 mux~ . . . . . . . .;
#X obj 435 529 mux~ . . . . . . . .;
#X obj 435 685 mux~ . . . . . . . .;
#X obj 122 47 loadbang;
#X obj 186 137 cnv 20 1 1 empty empty 0 5 9 0 16 -1 -1 0;
#X text 362 107 INPUTS;
#X text 445 311 Control which outputs become the inputs on other effects
, f 24;
#X obj 186 157 cnv 20 1 1 empty empty 1 5 9 0 16 -1 -1 0;
#X obj 186 177 cnv 20 1 1 empty empty 2 5 9 0 16 -1 -1 0;
#X obj 186 197 cnv 20 1 1 empty empty 3 5 9 0 16 -1 -1 0;
#X obj 186 217 cnv 20 1 1 empty empty 4 5 9 0 16 -1 -1 0;
#X obj 186 237 cnv 20 1 1 empty empty 5 5 9 0 16 -1 -1 0;
#X obj 186 257 cnv 20 1 1 empty empty 6 5 9 0 16 -1 -1 0;
#X obj 186 277 cnv 20 1 1 empty empty 7 5 9 0 16 -1 -1 0;
#X obj 206 117 cnv 20 1 1 empty empty 1 5 9 0 16 -1 -1 0;
#X obj 226 117 cnv 20 1 1 empty empty 2 5 9 0 16 -1 -1 0;
#X obj 246 117 cnv 20 1 1 empty empty 3 5 9 0 16 -1 -1 0;
#X obj 266 117 cnv 20 1 1 empty empty 4 5 9 0 16 -1 -1 0;
#X obj 286 117 cnv 20 1 1 empty empty 5 5 9 0 16 -1 -1 0;
#X obj 306 117 cnv 20 1 1 empty empty 6 5 9 0 16 -1 -1 0;
#X obj 326 117 cnv 20 1 1 empty empty 7 5 9 0 16 -1 -1 0;
#X obj 326 137 vradio 20 1 0 8 empty empty empty 0 -8 0 10 -262144
-1 -1 0;
#X obj 206 137 vradio 20 1 0 8 empty empty empty 0 -8 0 10 -262144
-33289 -1 0;
#X text 225 101 SIGNAL RECIEVER;
#X obj 206 157 cnv 20 1 1 empty empty X 4 11 0 20 -33289 -258113 0
;
#X floatatom 318 345 2 0 0 0 - - -;
#X floatatom 340 76 2 0 0 0 - - -;
#X obj 226 177 cnv 20 1 1 empty empty X 4 11 0 20 -33289 -258113 0
;
#X obj 246 197 cnv 20 1 1 empty empty X 4 11 0 20 -33289 -258113 0
;
#X obj 266 217 cnv 20 1 1 empty empty X 4 11 0 20 -33289 -258113 0
;
#X obj 286 237 cnv 20 1 1 empty empty X 4 11 0 20 -33289 -258113 0
;
#X obj 306 257 cnv 20 1 1 empty empty X 4 11 0 20 -33289 -258113 0
;
#X obj 326 277 cnv 20 1 1 empty empty X 4 11 0 20 -33289 -258113 0
;
#X obj 601 585 r~ \$0-sig0;
#X obj 681 585 r~ \$0-sig1;
#X obj 601 609 r~ \$0-sig2;
#X obj 681 609 r~ \$0-sig3;
#X obj 601 634 r~ \$0-sig4;
#X obj 681 634 r~ \$0-sig5;
#X obj 601 659 r~ \$0-sig6;
#X obj 681 659 r~ \$0-sig7;
#X obj 528 718 outlet~;
#X obj 601 684 mux~ . . . . . . . .;
#X text 362 38 First value is a 'dummy' value \, to allow for silent
activations of pack;
#X obj 195 39 unpack f f f f f f f f;
#X connect 0 0 3 0;
#X connect 1 0 4 0;
#X connect 2 0 94 0;
#X connect 3 0 95 0;
#X connect 4 0 96 0;
#X connect 5 0 8 0;
#X connect 6 0 9 0;
#X connect 7 0 10 0;
#X connect 8 0 71 0;
#X connect 9 0 81 0;
#X connect 10 0 97 0;
#X connect 11 0 19 0;
#X connect 12 0 20 0;
#X connect 13 0 21 0;
#X connect 14 0 22 0;
#X connect 15 0 23 0;
#X connect 16 0 24 0;
#X connect 17 0 25 0;
#X connect 18 0 43 0;
#X connect 26 0 94 0;
#X connect 27 0 94 1;
#X connect 28 0 94 2;
#X connect 29 0 94 3;
#X connect 30 0 94 4;
#X connect 31 0 94 5;
#X connect 32 0 94 6;
#X connect 33 0 94 7;
#X connect 34 0 139 0;
#X connect 35 0 117 0;
#X connect 36 0 0 0;
#X connect 37 0 1 0;
#X connect 38 0 5 0;
#X connect 39 0 6 0;
#X connect 40 0 7 0;
#X connect 44 0 95 0;
#X connect 45 0 95 1;
#X connect 46 0 95 2;
#X connect 47 0 95 3;
#X connect 48 0 95 4;
#X connect 49 0 95 5;
#X connect 50 0 95 6;
#X connect 51 0 95 7;
#X connect 53 0 96 0;
#X connect 54 0 96 1;
#X connect 55 0 96 2;
#X connect 56 0 96 3;
#X connect 57 0 96 4;
#X connect 58 0 96 5;
#X connect 59 0 96 6;
#X connect 60 0 96 7;
#X connect 62 0 71 0;
#X connect 63 0 71 1;
#X connect 64 0 71 2;
#X connect 65 0 71 3;
#X connect 66 0 71 4;
#X connect 67 0 71 5;
#X connect 68 0 71 6;
#X connect 69 0 71 7;
#X connect 71 0 70 0;
#X connect 72 0 81 0;
#X connect 73 0 81 1;
#X connect 74 0 81 2;
#X connect 75 0 81 3;
#X connect 76 0 81 4;
#X connect 77 0 81 5;
#X connect 78 0 81 6;
#X connect 79 0 81 7;
#X connect 81 0 80 0;
#X connect 82 0 97 0;
#X connect 83 0 97 1;
#X connect 84 0 97 2;
#X connect 85 0 97 3;
#X connect 86 0 97 4;
#X connect 87 0 97 5;
#X connect 88 0 97 6;
#X connect 89 0 97 7;
#X connect 94 0 41 0;
#X connect 95 0 52 0;
#X connect 96 0 61 0;
#X connect 97 0 90 0;
#X connect 98 0 35 0;
#X connect 98 0 36 0;
#X connect 98 0 37 0;
#X connect 98 0 38 0;
#X connect 98 0 39 0;
#X connect 98 0 40 0;
#X connect 98 0 121 0;
#X connect 116 0 120 0;
#X connect 117 0 2 0;
#X connect 120 0 137 0;
#X connect 121 0 116 0;
#X connect 128 0 137 0;
#X connect 129 0 137 1;
#X connect 130 0 137 2;
#X connect 131 0 137 3;
#X connect 132 0 137 4;
#X connect 133 0 137 5;
#X connect 134 0 137 6;
#X connect 135 0 137 7;
#X connect 137 0 136 0;
#X connect 139 1 35 0;
#X connect 139 2 36 0;
#X connect 139 3 37 0;
#X connect 139 4 38 0;
#X connect 139 5 39 0;
#X connect 139 6 40 0;
#X connect 139 7 121 0;
#X coords 0 -1 1 1 250 200 2 100 100;
