#N canvas 200 25 583 507 12;
#X obj 116 143 hsl 128 15 0 50 0 0 empty empty LFO-FREQUENCY 30 8 0
10 -262144 -1 -1 0 1;
#X obj 116 177 hsl 128 15 0 1 0 0 empty empty LFO-AMPLITUDE 30 8 0
10 -262144 -1 -1 12700 1;
#X obj 185 104 vradio 15 1 0 2 empty empty empty 0 -8 0 10 -262144
-1 -1 0;
#X floatatom 251 142 5 0 50 0 - - -;
#X floatatom 251 176 5 0 1 0 - - -;
#X obj 257 104 bng 15 250 50 0 empty empty empty 17 7 0 10 -262144
-1 -1;
#X text 246 117 RESET;
#X text 112 190 0;
#X text 238 190 1;
#X obj 143 225 LFO~;
#X obj 65 62 inlet~;
#X obj 123 62 inlet~;
#X obj 66 144 +~;
#X obj 66 427 *~;
#X obj 66 467 outlet~;
#X obj 281 104 tgl 15 0 empty empty empty 17 7 0 10 -262144 -1 -1 0
1;
#X obj 66 228 spigot~;
#X text 112 156 0Hz;
#X text 218 156 50Hz;
#X text 200 102 SINE;
#X text 200 117 SQUARE;
#X msg 310 123 0;
#X obj 296 59 loadbang;
#X obj 165 392 *~ 0.5;
#X obj 165 362 +~;
#X obj 183 335 sig~;
#X msg 310 148 1;
#X text 352 135 Reset LFO AMP to one since the signal is just muted
otherwise which is a but unintuitive, f 33;
#X obj 253 59 inlet;
#X connect 0 0 3 0;
#X connect 1 0 4 0;
#X connect 2 0 9 2;
#X connect 3 0 9 0;
#X connect 4 0 9 1;
#X connect 5 0 9 3;
#X connect 5 0 21 0;
#X connect 5 0 26 0;
#X connect 9 0 24 0;
#X connect 9 2 25 0;
#X connect 10 0 12 0;
#X connect 11 0 12 1;
#X connect 12 0 16 0;
#X connect 13 0 14 0;
#X connect 15 0 16 2;
#X connect 16 0 13 0;
#X connect 21 0 1 0;
#X connect 21 0 2 0;
#X connect 21 0 15 0;
#X connect 22 0 5 0;
#X connect 23 0 13 1;
#X connect 24 0 23 0;
#X connect 25 0 24 1;
#X connect 26 0 1 0;
#X connect 28 0 5 0;
#X coords 0 -1 1 1 200 110 1 100 100;
