#N canvas 423 25 563 540 12;
#X obj 116 174 hsl 128 15 0 50 0 0 empty empty OSC-FREQUENCY 30 8 0
10 -262144 -1 -1 0 1;
#X obj 116 208 hsl 128 15 0 50 0 0 empty empty OSC-AMPLITUDE 30 8 0
10 -262144 -1 -1 0 1;
#X obj 194 103 vradio 15 1 0 2 empty empty empty 0 -8 0 10 -262144
-1 -1 0;
#X floatatom 251 173 5 0 50 0 - - -;
#X floatatom 251 207 5 0 1 0 - - -;
#X obj 267 104 bng 15 250 50 0 empty empty empty 17 7 0 10 -262144
-1 -1;
#X text 256 117 RESET;
#X text 112 221 0;
#X obj 65 62 inlet~;
#X obj 123 62 inlet~;
#X obj 66 144 +~;
#X obj 66 507 outlet~;
#X obj 291 104 tgl 15 0 empty empty empty 17 7 0 10 -262144 -1 -1 0
1;
#X obj 66 268 spigot~;
#X text 112 187 0Hz;
#X text 218 187 50Hz;
#X text 209 101 SINE;
#X text 209 116 SQUARE;
#X msg 310 105 0;
#X obj 304 60 loadbang;
#X obj 66 460 -~;
#X obj 66 431 *~;
#X obj 119 430 *~;
#X obj 66 398 hilbert~;
#X obj 141 398 cos~;
#X obj 201 398 cos~;
#X obj 201 376 +~ -0.25;
#X obj 141 343 phasor~;
#X obj 141 288 sig~;
#X floatatom 141 262 5 0 0 0 - - -;
#X obj 141 318 +~;
#X obj 116 139 hsl 128 15 -1000 1000 0 0 empty empty SHIFT-FREQUENCY
22 8 0 10 -262144 -1 -1 6350 1;
#X floatatom 251 138 7 0 50 0 - - -;
#X text 231 221 50;
#X text 109 153 -1000Hz;
#X text 197 152 +1000Hz;
#X obj 332 185 LFO~;
#X obj 332 300 *~;
#X obj 262 60 inlet;
#X connect 0 0 3 0;
#X connect 0 0 36 0;
#X connect 1 0 4 0;
#X connect 1 0 36 1;
#X connect 2 0 36 2;
#X connect 5 0 18 0;
#X connect 8 0 10 0;
#X connect 9 0 10 1;
#X connect 10 0 13 0;
#X connect 12 0 13 2;
#X connect 13 0 23 0;
#X connect 18 0 0 0;
#X connect 18 0 1 0;
#X connect 18 0 31 0;
#X connect 18 0 2 0;
#X connect 18 0 12 0;
#X connect 19 0 5 0;
#X connect 20 0 11 0;
#X connect 21 0 20 0;
#X connect 22 0 20 1;
#X connect 23 0 21 0;
#X connect 23 1 22 0;
#X connect 24 0 21 1;
#X connect 25 0 22 1;
#X connect 26 0 25 0;
#X connect 27 0 24 0;
#X connect 27 0 26 0;
#X connect 28 0 30 0;
#X connect 29 0 28 0;
#X connect 30 0 27 0;
#X connect 31 0 32 0;
#X connect 31 0 29 0;
#X connect 36 0 37 0;
#X connect 36 2 37 1;
#X connect 37 0 30 1;
#X connect 38 0 5 0;
#X coords 0 -1 1 1 210 140 1 100 100;
