#N canvas 105 245 547 518 12;
#X obj 121 124 hsl 230 15 0 1 0 0 empty empty PROPORTIONS 87 8 0 10
-262144 -1 -1 11900 1;
#X floatatom 108 328 5 0 0 0 - - -;
#X obj 108 303 -;
#X floatatom 42 279 5 0 0 0 - - -;
#X msg 42 254 1;
#X obj 77 254 t b f;
#X obj 181 377 +~;
#X obj 225 349 *~;
#X obj 153 350 *~;
#X floatatom 243 326 5 0 0 0 - - -;
#X obj 118 180 s mixprop;
#X obj 77 228 r mixprop;
#X obj 243 302 r mixprop;
#X obj 181 404 outlet~;
#X obj 350 104 bng 15 250 50 0 empty empty empty 17 7 0 10 -262144
-1 -1;
#X text 309 103 RESET;
#X obj 330 75 inlet;
#X obj 374 102 s reset;
#X obj 225 275 inlet~;
#X obj 171 275 inlet~;
#X obj 42 37 loadbang;
#X obj 110 37 r reset;
#X obj 72 78 f \$1;
#X text 321 140 100%;
#X text 293 152 signal 2;
#X text 117 140 100%;
#X text 117 151 signal 1;
#X connect 0 0 10 0;
#X connect 1 0 8 0;
#X connect 2 0 1 0;
#X connect 3 0 2 0;
#X connect 4 0 3 0;
#X connect 5 0 3 0;
#X connect 5 1 2 1;
#X connect 6 0 13 0;
#X connect 7 0 6 1;
#X connect 8 0 6 0;
#X connect 9 0 7 1;
#X connect 11 0 5 0;
#X connect 12 0 9 0;
#X connect 14 0 17 0;
#X connect 16 0 14 0;
#X connect 18 0 7 0;
#X connect 19 0 8 1;
#X connect 20 0 22 0;
#X connect 20 0 4 0;
#X connect 21 0 22 0;
#X connect 22 0 0 0;
#X coords 0 -1 1 1 270 75 1 100 100;
