#N canvas 396 138 547 573 12;
#X obj 115 139 hsl 128 15 0 50 0 0 empty empty SPEED 51 8 0 10 -262144
-1 -1 0 1;
#X obj 115 169 hsl 128 15 0 1 0 0 empty empty DEPTH 51 8 0 10 -262144
-1 -1 0 1;
#X obj 184 104 vradio 15 1 0 2 empty empty empty 0 -8 0 10 -262144
-1 -1 0;
#X floatatom 257 138 5 0 0 0 - - -;
#X floatatom 257 168 5 0 0 0 - - -;
#X obj 267 104 bng 15 250 50 0 empty empty empty 17 7 0 10 -262144
-1 -1;
#X text 256 117 RESET;
#X obj 4 15 loadbang;
#X obj 173 37 outlet;
#X obj 112 37 outlet;
#X obj 267 79 inlet;
#X obj 112 16 inlet;
#X obj 173 16 inlet;
#X obj 62 115 f \$1;
#X obj 54 141 f \$2;
#X text 111 153 0;
#X text 112 183 0;
#X text 234 183 1;
#X text 227 153 50;
#X obj 100 249 osc~;
#X obj 100 375 *~;
#X obj 100 402 outlet~;
#X obj 140 326 clip~ -1 1;
#X obj 140 281 spigot~;
#X obj 184 77 0;
#X obj 140 303 *~ 1e+07;
#X obj 40 320 spigot~;
#X obj 86 292 == 0;
#X obj 61 206 0;
#X floatatom 100 211 5 0 0 0 - - -;
#X floatatom 184 246 5 0 0 0 - - -;
#X floatatom 258 326 5 0 0 0 - - -;
#X obj 311 102 s \$0-lfo_reset;
#X obj 4 37 r \$0-lfo_reset;
#X obj 231 17 inlet;
#X text 199 102 SINE;
#X text 199 117 SQUARE;
#X connect 0 0 3 0;
#X connect 1 0 4 0;
#X connect 2 0 30 0;
#X connect 3 0 9 0;
#X connect 3 0 29 0;
#X connect 4 0 8 0;
#X connect 4 0 31 0;
#X connect 5 0 32 0;
#X connect 7 0 13 0;
#X connect 7 0 14 0;
#X connect 7 0 28 0;
#X connect 7 0 24 0;
#X connect 10 0 5 0;
#X connect 11 0 3 0;
#X connect 11 0 0 0;
#X connect 12 0 4 0;
#X connect 12 0 1 0;
#X connect 13 0 0 0;
#X connect 14 0 1 0;
#X connect 19 0 23 0;
#X connect 19 0 26 0;
#X connect 20 0 21 0;
#X connect 22 0 20 0;
#X connect 23 0 25 0;
#X connect 24 0 2 0;
#X connect 25 0 22 0;
#X connect 26 0 20 0;
#X connect 27 0 26 2;
#X connect 28 0 19 1;
#X connect 29 0 19 0;
#X connect 30 0 23 2;
#X connect 30 0 27 0;
#X connect 31 0 20 1;
#X connect 33 0 13 0;
#X connect 33 0 14 0;
#X connect 33 0 24 0;
#X connect 33 0 28 0;
#X connect 34 0 2 0;
#X coords 0 -1 1 1 200 100 1 100 100;
