#N canvas 492 25 948 847 12;
#X floatatom 192 110 2 0 7 0 - - -;
#X floatatom 208 110 2 0 7 0 - - -;
#X floatatom 224 110 2 0 7 0 - - -;
#X floatatom 240 110 2 0 7 0 - - -;
#X floatatom 256 110 2 0 7 0 - - -;
#X floatatom 272 110 2 0 7 0 - - -;
#X floatatom 192 131 3 0 1 0 - - -;
#X floatatom 215 131 3 0 1 0 - - -;
#X floatatom 238 131 3 0 1 0 - - -;
#X floatatom 261 131 3 0 1 0 - - -;
#X floatatom 284 131 3 0 1 0 - - -;
#X floatatom 307 131 3 0 1 0 - - -;
#X obj 129 75 unpack f f f f f f f;
#X obj 129 51 pack f f f f f f f;
#X obj 128 26 unpack f f f f f f f;
#X obj 180 164 pack f f f f f f f;
#X text 33 4 Patches inlet;
#X obj 128 4 inlet;
#X obj 325 74 unpack f f f f f f f;
#X obj 325 50 pack f f f f f f f;
#X obj 324 25 unpack f f f f f f f;
#X obj 324 3 inlet;
#X text 236 4 Mixers inlet;
#X obj 180 194 outlet;
#X msg 52 146 bang;
#X msg 59 46 bang;
#X obj 247 189 pack f f f f f f f;
#X obj 247 215 outlet;
#X text 106 110 ACTIVATE;
#X text 134 129 SAVE;
#X obj 166 111 bng 15 250 50 0 empty empty empty 17 7 0 10 -4034 -1
-1;
#X obj 166 130 bng 15 250 50 0 empty empty empty 17 7 0 10 -257985
-1 -1;
#X text 291 110 P;
#X text 332 131 M;
#X text 66 239 First element of list is to be ignored. Means that changing
the value of a number won't trigger pack. Allowing it to be 'silently'
activated by a bang.;
#X connect 0 0 15 1;
#X connect 1 0 15 2;
#X connect 2 0 15 3;
#X connect 3 0 15 4;
#X connect 4 0 15 5;
#X connect 5 0 15 6;
#X connect 6 0 26 1;
#X connect 7 0 26 2;
#X connect 8 0 26 3;
#X connect 9 0 26 4;
#X connect 10 0 26 5;
#X connect 11 0 26 6;
#X connect 12 1 0 0;
#X connect 12 2 1 0;
#X connect 12 3 2 0;
#X connect 12 4 3 0;
#X connect 12 5 4 0;
#X connect 12 6 5 0;
#X connect 13 0 12 0;
#X connect 14 1 13 1;
#X connect 14 2 13 2;
#X connect 14 3 13 3;
#X connect 14 4 13 4;
#X connect 14 5 13 5;
#X connect 14 6 13 6;
#X connect 15 0 23 0;
#X connect 17 0 14 0;
#X connect 18 1 6 0;
#X connect 18 2 7 0;
#X connect 18 3 8 0;
#X connect 18 4 9 0;
#X connect 18 5 10 0;
#X connect 18 6 11 0;
#X connect 19 0 18 0;
#X connect 20 1 19 1;
#X connect 20 2 19 2;
#X connect 20 3 19 3;
#X connect 20 4 19 4;
#X connect 20 5 19 5;
#X connect 20 6 19 6;
#X connect 21 0 20 0;
#X connect 24 0 15 0;
#X connect 24 0 26 0;
#X connect 25 0 13 0;
#X connect 25 0 19 0;
#X connect 26 0 27 0;
#X connect 30 0 24 0;
#X connect 31 0 25 0;
#X coords 0 -1 1 1 250 55 2 100 100;
