#N canvas 0 25 1074 847 12;
#X obj 178 38 inlet~;
#X obj 230 38 inlet~;
#X obj 282 38 inlet~;
#X obj 333 38 inlet~;
#X obj 384 38 inlet~;
#X obj 435 38 inlet~;
#X obj 487 38 inlet~;
#X obj 538 38 inlet~;
#X text 305 10 Effects Channel Inlets;
#X obj 85 39 inlet~;
#X text 68 3 Main Signal Inlet e.g. for voice, f 18;
#X obj 104 103 bng 15 250 50 0 empty empty empty 17 7 0 10 -262144
-1 -1;
#X msg 130 75 0 0 0 0 0 0 0 0;
#X text 120 102 FULL RESET;
#X obj 360 102 patch-panel~;
#X obj 105 157 mixing-board-preset;
#X obj 14 74 r \$0-mixervals;
#X obj 105 217 mixing-board-preset;
#X obj 100 276 V-mixer-multi~;
#X obj 606 612 s \$0-mixervals;
#X obj 431 739 outlet~;
#X obj 489 739 outlet~;
#X obj 547 739 outlet~;
#X obj 605 739 outlet~;
#X obj 663 739 outlet~;
#X obj 722 739 outlet~;
#X obj 100 611 mixing-board-output~;
#X obj 781 739 outlet~;
#X obj 840 739 outlet~;
#X text 477 763 DYNAMIC MIXER OUTLETS (primarily) for FEEDBACK signals
;
#X obj 349 741 outlet~;
#X obj 53 741 outlet~;
#X obj 112 741 outlet~;
#X obj 172 741 outlet~;
#X obj 231 741 outlet~;
#X obj 290 741 outlet~;
#X text 476 779 synchronise with patch panel \, see [mixing-board-output~]
for more info.;
#X text 52 766 STATIC MIXER OUTLETS for 'siphoning' of mixed signals
at any point in the mixing chain, f 51;
#X connect 0 0 14 1;
#X connect 1 0 14 2;
#X connect 2 0 14 3;
#X connect 3 0 14 4;
#X connect 4 0 14 5;
#X connect 5 0 14 6;
#X connect 6 0 14 7;
#X connect 7 0 14 8;
#X connect 9 0 18 0;
#X connect 11 0 12 0;
#X connect 11 0 18 8;
#X connect 12 0 14 0;
#X connect 14 0 18 1;
#X connect 14 1 18 2;
#X connect 14 2 18 3;
#X connect 14 3 18 4;
#X connect 14 4 18 5;
#X connect 14 5 18 6;
#X connect 14 6 15 0;
#X connect 14 6 17 0;
#X connect 14 6 26 6;
#X connect 15 0 14 0;
#X connect 15 1 18 7;
#X connect 16 0 15 1;
#X connect 16 0 17 1;
#X connect 17 0 14 0;
#X connect 17 1 18 7;
#X connect 18 0 26 0;
#X connect 18 0 31 0;
#X connect 18 1 26 1;
#X connect 18 1 32 0;
#X connect 18 2 26 2;
#X connect 18 2 33 0;
#X connect 18 3 26 3;
#X connect 18 3 34 0;
#X connect 18 4 26 4;
#X connect 18 4 35 0;
#X connect 18 5 26 5;
#X connect 18 5 30 0;
#X connect 18 6 19 0;
#X connect 26 0 20 0;
#X connect 26 1 21 0;
#X connect 26 2 22 0;
#X connect 26 3 23 0;
#X connect 26 4 24 0;
#X connect 26 5 25 0;
#X connect 26 6 27 0;
#X connect 26 7 28 0;
#X coords 0 -1 1 1 483 596 2 100 100;
