#N canvas 225 25 1215 847 12;
#X obj 68 272 outlet~;
#X obj 151 272 outlet~;
#X obj 101 33 inlet~;
#X obj 101 76 s~ \$0-sig0;
#X obj 525 340 unpack f f f f f f f;
#X floatatom 547 367 2 0 0 0 - - -;
#X floatatom 570 367 2 0 0 0 - - -;
#X floatatom 593 367 2 0 0 0 - - -;
#X floatatom 616 367 2 0 0 0 - - -;
#X floatatom 639 367 2 0 0 0 - - -;
#X floatatom 662 367 2 0 0 0 - - -;
#X obj 125 121 vsl 15 50 0 1 0 0 empty empty empty 0 -9 0 10 -262144
-1 -1 4900 1;
#X text 127 118 GAIN, f 1;
#X floatatom 145 139 3 0 0 0 - - -;
#X obj 145 119 tgl 15 0 empty empty empty 17 7 0 10 -262144 -1 -1 0
1;
#X obj 125 194 s \$0f1;
#X obj 204 121 vsl 15 50 0 1 0 0 empty empty empty 0 -9 0 10 -262144
-1 -1 4900 1;
#X text 206 118 GAIN, f 1;
#X floatatom 224 139 3 0 0 0 - - -;
#X obj 224 119 tgl 15 0 empty empty empty 17 7 0 10 -262144 -1 -1 0
1;
#X obj 288 121 vsl 15 50 0 1 0 0 empty empty empty 0 -9 0 10 -262144
-1 -1 4900 1;
#X text 290 118 GAIN, f 1;
#X floatatom 308 139 3 0 0 0 - - -;
#X obj 308 119 tgl 15 0 empty empty empty 17 7 0 10 -262144 -1 -1 0
1;
#X obj 366 121 vsl 15 50 0 1 0 0 empty empty empty 0 -9 0 10 -262144
-1 -1 4900 1;
#X text 368 118 GAIN, f 1;
#X floatatom 386 139 3 0 0 0 - - -;
#X obj 386 119 tgl 15 0 empty empty empty 17 7 0 10 -262144 -1 -1 0
1;
#X obj 445 121 vsl 15 50 0 1 0 0 empty empty empty 0 -9 0 10 -262144
-1 -1 4900 1;
#X text 447 118 GAIN, f 1;
#X floatatom 465 139 3 0 0 0 - - -;
#X obj 465 119 tgl 15 0 empty empty empty 17 7 0 10 -262144 -1 -1 0
1;
#X obj 519 121 vsl 15 50 0 1 0 0 empty empty empty 0 -9 0 10 -262144
-1 -1 4900 1;
#X text 521 118 GAIN, f 1;
#X floatatom 539 139 3 0 0 0 - - -;
#X obj 539 119 tgl 15 0 empty empty empty 17 7 0 10 -262144 -1 -1 0
1;
#X obj 204 194 s \$0f2;
#X obj 288 194 s \$0f3;
#X obj 366 194 s \$0f4;
#X obj 445 194 s \$0f5;
#X obj 519 194 s \$0f6;
#X obj 662 309 inlet;
#X obj 101 55 spigot~;
#X obj 191 33 inlet~;
#X obj 191 55 spigot~;
#X obj 271 33 inlet~;
#X obj 271 55 spigot~;
#X obj 351 33 inlet~;
#X obj 351 55 spigot~;
#X obj 434 33 inlet~;
#X obj 434 55 spigot~;
#X obj 514 33 inlet~;
#X obj 514 55 spigot~;
#X obj 191 76 s~ \$0-sig1;
#X obj 271 76 s~ \$0-sig2;
#X obj 351 76 s~ \$0-sig3;
#X obj 434 76 s~ \$0-sig4;
#X obj 514 76 s~ \$0-sig5;
#X obj 704 309 loadbang;
#X obj 59 502 demux~ . . . . . . . . .;
#X obj 59 477 *~;
#X obj 77 452 r \$0f1;
#X obj 236 272 outlet~;
#X obj 319 272 outlet~;
#X obj 402 272 outlet~;
#X obj 483 272 outlet~;
#X obj 568 273 outlet~;
#X obj 651 273 outlet~;
#X obj 240 502 demux~ . . . . . . . . .;
#X obj 240 477 *~;
#X obj 424 502 demux~ . . . . . . . . .;
#X obj 424 477 *~;
#X obj 799 503 demux~ . . . . . . . . .;
#X obj 799 478 *~;
#X obj 980 503 demux~ . . . . . . . . .;
#X obj 980 478 *~;
#X obj 306 649 s~ \$0-out2;
#X obj 482 649 s~ \$0-out4;
#X obj 394 649 s~ \$0-out3;
#X obj 576 649 s~ \$0-out5;
#X obj 219 649 s~ \$0-out1;
#X obj 670 649 s~ \$0-out6;
#X obj 757 649 s~ \$0-out7;
#X obj 843 649 s~ \$0-out8;
#X obj 611 502 demux~ . . . . . . . . .;
#X obj 611 477 *~;
#X obj 59 427 r~ \$0-sig0;
#X obj 240 427 r~ \$0-sig1;
#X obj 424 427 r~ \$0-sig2;
#X obj 611 427 r~ \$0-sig3;
#X obj 799 428 r~ \$0-sig4;
#X obj 980 428 r~ \$0-sig5;
#X text 56 354 OUTPUT SYNCHRONISER;
#X msg 704 338 8;
#X obj 258 452 r \$0f2;
#X obj 442 452 r \$0f3;
#X obj 629 452 r \$0f4;
#X obj 817 452 r \$0f5;
#X obj 998 453 r \$0f6;
#X text 55 375 Take input from mixing board patch paenl and route signal
to the correct outlet.*;
#X text 54 680 *One outlet exists for every signal inlet on the mixing-board
patch panel. For this to work as a FEEDBACK panel \, the system providing
an audio signal to an inlet on in the mixing board patch panel must
also have its FEEDBACK inlet connected to the corresponding outlet
from this patch. i.e. if it provides audio signal to patch panel inlet
1 \, it must be connected to the first of these outlets. This ensures
that inlets and outlets can be sychronised and that the correct FEEDBACK
signal is being provided for the current mixing board configuation.
, f 165;
#X text 54 740 This is a bit complex/confusing to explain but it's
not all that complicated., f 77;
#X text 53 797 Note that FEEDBACK_INLETS are provided on all the FX-
modules I have developed., f 84;
#X obj 68 249 r~ \$0-out1;
#X obj 402 249 r~ \$0-out5;
#X obj 151 248 r~ \$0-out2;
#X obj 483 247 r~ \$0-out6;
#X obj 236 248 r~ \$0-out3;
#X obj 568 247 r~ \$0-out7;
#X obj 319 248 r~ \$0-out4;
#X obj 651 247 r~ \$0-out8;
#X text 636 72 The primary purpose of this patch is to have a way to
handle FEEDBACK signal with the dynamic nature of the MIXING-BOARD.
There are no doubt other ways it could be used but they haven't really
been explored., f 84;
#X text 52 763 IF [SOME PATCH] OUTLET connected to [MIXING BOARD PATCH
PANEL] INLET number (N) \; THEN connect [THIS PATCH] OUTLET number
(N) to [SOME PATCH] FEEDBACK_INLET, f 159;
#X text 768 310 Default to NO SIGNAL channel;
#X text 684 367 Ignore first item to allow for 'silent' pack activations
;
#X msg 17 94 1;
#X obj 17 65 loadbang;
#X connect 2 0 42 0;
#X connect 4 1 5 0;
#X connect 4 2 6 0;
#X connect 4 3 7 0;
#X connect 4 4 8 0;
#X connect 4 5 9 0;
#X connect 4 6 10 0;
#X connect 5 0 59 0;
#X connect 6 0 68 0;
#X connect 7 0 70 0;
#X connect 8 0 84 0;
#X connect 9 0 72 0;
#X connect 10 0 74 0;
#X connect 11 0 13 0;
#X connect 11 0 15 0;
#X connect 14 0 42 2;
#X connect 16 0 18 0;
#X connect 16 0 36 0;
#X connect 19 0 44 2;
#X connect 20 0 22 0;
#X connect 20 0 37 0;
#X connect 23 0 46 2;
#X connect 24 0 26 0;
#X connect 24 0 38 0;
#X connect 27 0 48 2;
#X connect 28 0 30 0;
#X connect 28 0 39 0;
#X connect 31 0 50 2;
#X connect 32 0 34 0;
#X connect 32 0 40 0;
#X connect 35 0 52 2;
#X connect 41 0 4 0;
#X connect 42 0 3 0;
#X connect 43 0 44 0;
#X connect 44 0 53 0;
#X connect 45 0 46 0;
#X connect 46 0 54 0;
#X connect 47 0 48 0;
#X connect 48 0 55 0;
#X connect 49 0 50 0;
#X connect 50 0 56 0;
#X connect 51 0 52 0;
#X connect 52 0 57 0;
#X connect 58 0 93 0;
#X connect 59 0 80 0;
#X connect 59 1 76 0;
#X connect 59 2 78 0;
#X connect 59 3 77 0;
#X connect 59 4 79 0;
#X connect 59 5 81 0;
#X connect 59 6 82 0;
#X connect 59 7 83 0;
#X connect 60 0 59 0;
#X connect 61 0 60 1;
#X connect 68 0 80 0;
#X connect 68 1 76 0;
#X connect 68 2 78 0;
#X connect 68 3 77 0;
#X connect 68 4 79 0;
#X connect 68 5 81 0;
#X connect 68 6 82 0;
#X connect 68 7 83 0;
#X connect 69 0 68 0;
#X connect 70 0 80 0;
#X connect 70 1 76 0;
#X connect 70 2 78 0;
#X connect 70 3 77 0;
#X connect 70 4 79 0;
#X connect 70 5 81 0;
#X connect 70 6 82 0;
#X connect 70 7 83 0;
#X connect 71 0 70 0;
#X connect 72 0 80 0;
#X connect 72 1 76 0;
#X connect 72 2 78 0;
#X connect 72 3 77 0;
#X connect 72 4 79 0;
#X connect 72 5 81 0;
#X connect 72 6 82 0;
#X connect 72 7 83 0;
#X connect 73 0 72 0;
#X connect 74 0 80 0;
#X connect 74 1 76 0;
#X connect 74 2 78 0;
#X connect 74 3 77 0;
#X connect 74 4 79 0;
#X connect 74 5 81 0;
#X connect 74 6 82 0;
#X connect 74 7 83 0;
#X connect 75 0 74 0;
#X connect 84 0 80 0;
#X connect 84 1 76 0;
#X connect 84 2 78 0;
#X connect 84 3 77 0;
#X connect 84 4 79 0;
#X connect 84 5 81 0;
#X connect 84 6 82 0;
#X connect 84 7 83 0;
#X connect 85 0 84 0;
#X connect 86 0 60 0;
#X connect 87 0 69 0;
#X connect 88 0 71 0;
#X connect 89 0 85 0;
#X connect 90 0 73 0;
#X connect 91 0 75 0;
#X connect 93 0 5 0;
#X connect 93 0 6 0;
#X connect 93 0 7 0;
#X connect 93 0 8 0;
#X connect 93 0 9 0;
#X connect 93 0 10 0;
#X connect 94 0 69 1;
#X connect 95 0 71 1;
#X connect 96 0 85 1;
#X connect 97 0 73 1;
#X connect 98 0 75 1;
#X connect 103 0 0 0;
#X connect 104 0 64 0;
#X connect 105 0 1 0;
#X connect 106 0 65 0;
#X connect 107 0 62 0;
#X connect 108 0 66 0;
#X connect 109 0 63 0;
#X connect 110 0 67 0;
#X connect 115 0 11 0;
#X connect 115 0 16 0;
#X connect 115 0 20 0;
#X connect 115 0 28 0;
#X connect 115 0 32 0;
#X connect 115 0 24 0;
#X connect 116 0 115 0;
#X coords 0 -1 1 1 483 80 2 100 100;
