#N canvas 572 25 803 847 12;
#X obj 180 105 vradio 20 1 0 8 empty empty empty 0 -8 0 10 -262144
-1 -1 0;
#X obj 203 105 vradio 20 1 0 8 empty empty empty 0 -8 0 10 -262144
-1 -1 3;
#X obj 226 105 vradio 20 1 0 8 empty empty empty 0 -8 0 10 -262144
-1 -1 4;
#X floatatom 180 304 2 0 0 0 - - -;
#X floatatom 203 304 2 0 0 0 - - -;
#X floatatom 226 304 2 0 0 0 - - -;
#X obj 249 105 vradio 20 1 0 8 empty empty empty 0 -8 0 10 -262144
-1 -1 0;
#X obj 272 105 vradio 20 1 0 8 empty empty empty 0 -8 0 10 -262144
-1 -1 0;
#X obj 295 105 vradio 20 1 0 8 empty empty empty 0 -8 0 10 -262144
-1 -1 0;
#X floatatom 249 304 2 0 0 0 - - -;
#X floatatom 272 304 2 0 0 0 - - -;
#X floatatom 295 304 2 0 0 0 - - -;
#X obj 325 107 inlet~;
#X obj 335 127 inlet~;
#X obj 345 147 inlet~;
#X obj 355 167 inlet~;
#X obj 365 187 inlet~;
#X obj 375 207 inlet~;
#X obj 385 227 inlet~;
#X obj 394 249 inlet~;
#X obj 375 107 s~ \$0-sig0;
#X obj 385 127 s~ \$0-sig1;
#X obj 395 147 s~ \$0-sig2;
#X obj 405 167 s~ \$0-sig3;
#X obj 415 187 s~ \$0-sig4;
#X obj 425 207 s~ \$0-sig5;
#X obj 435 227 s~ \$0-sig6;
#X obj 96 389 r~ \$0-sig0;
#X obj 176 389 r~ \$0-sig1;
#X obj 96 413 r~ \$0-sig2;
#X obj 176 413 r~ \$0-sig3;
#X obj 96 438 r~ \$0-sig4;
#X obj 176 438 r~ \$0-sig5;
#X obj 96 463 r~ \$0-sig6;
#X obj 176 463 r~ \$0-sig7;
#X obj 195 14 inlet;
#X floatatom 195 76 2 0 0 0 - - -;
#X floatatom 219 76 2 0 0 0 - - -;
#X floatatom 244 76 2 0 0 0 - - -;
#X floatatom 268 76 2 0 0 0 - - -;
#X floatatom 293 76 2 0 0 0 - - -;
#X floatatom 318 76 2 0 0 0 - - -;
#X obj 96 511 outlet~;
#X text 85 688 OUTLET 'PACKAGES';
#X obj 444 249 s~ \$0-sig7;
#X obj 260 389 r~ \$0-sig0;
#X obj 340 389 r~ \$0-sig1;
#X obj 260 413 r~ \$0-sig2;
#X obj 340 413 r~ \$0-sig3;
#X obj 260 438 r~ \$0-sig4;
#X obj 340 438 r~ \$0-sig5;
#X obj 260 463 r~ \$0-sig6;
#X obj 340 463 r~ \$0-sig7;
#X obj 165 512 outlet~;
#X obj 435 388 r~ \$0-sig0;
#X obj 515 390 r~ \$0-sig1;
#X obj 435 412 r~ \$0-sig2;
#X obj 515 414 r~ \$0-sig3;
#X obj 435 437 r~ \$0-sig4;
#X obj 515 439 r~ \$0-sig5;
#X obj 435 462 r~ \$0-sig6;
#X obj 515 464 r~ \$0-sig7;
#X obj 235 512 outlet~;
#X obj 95 546 r~ \$0-sig0;
#X obj 175 546 r~ \$0-sig1;
#X obj 95 570 r~ \$0-sig2;
#X obj 175 570 r~ \$0-sig3;
#X obj 95 595 r~ \$0-sig4;
#X obj 175 595 r~ \$0-sig5;
#X obj 95 620 r~ \$0-sig6;
#X obj 175 620 r~ \$0-sig7;
#X obj 325 678 outlet~;
#X obj 95 645 mux~ . . . . . . . .;
#X obj 265 546 r~ \$0-sig0;
#X obj 345 546 r~ \$0-sig1;
#X obj 265 570 r~ \$0-sig2;
#X obj 345 570 r~ \$0-sig3;
#X obj 265 595 r~ \$0-sig4;
#X obj 345 595 r~ \$0-sig5;
#X obj 265 620 r~ \$0-sig6;
#X obj 345 620 r~ \$0-sig7;
#X obj 390 678 outlet~;
#X obj 265 645 mux~ . . . . . . . .;
#X obj 435 546 r~ \$0-sig0;
#X obj 515 546 r~ \$0-sig1;
#X obj 435 570 r~ \$0-sig2;
#X obj 515 570 r~ \$0-sig3;
#X obj 435 595 r~ \$0-sig4;
#X obj 515 595 r~ \$0-sig5;
#X obj 435 620 r~ \$0-sig6;
#X obj 515 620 r~ \$0-sig7;
#X obj 459 678 outlet~;
#X text 22 86 Put channel labels here ->, f 14;
#X text 84 706 Arranged in this way to make expansion/ modification
a bit easier. Note that the Left to Right arrangement of the outlets
is critical for the outlets making sense in the abstraction., f 69
;
#X text 354 85 Stagger to ENSURE correct inlet order;
#X obj 96 488 mux~ . . . . . . . .;
#X obj 260 488 mux~ . . . . . . . .;
#X obj 435 489 mux~ . . . . . . . .;
#X obj 435 645 mux~ . . . . . . . .;
#X obj 597 379 outlet;
#X obj 122 47 loadbang;
#X obj 144 284 bng 15 250 50 0 empty empty empty 17 7 0 10 -262144
-1 -1;
#X msg 125 314 bang;
#X obj 334 351 pack f f f f f f f;
#X obj 195 39 unpack f f f f f f f;
#X text 343 38 First value is a 'dummy' value \, to allow for silent
activations of pack;
#X connect 0 0 3 0;
#X connect 0 0 101 0;
#X connect 1 0 4 0;
#X connect 1 0 101 0;
#X connect 2 0 5 0;
#X connect 2 0 101 0;
#X connect 3 0 95 0;
#X connect 3 0 103 1;
#X connect 4 0 96 0;
#X connect 4 0 103 2;
#X connect 5 0 97 0;
#X connect 5 0 103 3;
#X connect 6 0 9 0;
#X connect 6 0 101 0;
#X connect 7 0 10 0;
#X connect 7 0 101 0;
#X connect 8 0 11 0;
#X connect 8 0 101 0;
#X connect 9 0 72 0;
#X connect 9 0 103 4;
#X connect 10 0 82 0;
#X connect 10 0 103 5;
#X connect 11 0 98 0;
#X connect 11 0 103 6;
#X connect 12 0 20 0;
#X connect 13 0 21 0;
#X connect 14 0 22 0;
#X connect 15 0 23 0;
#X connect 16 0 24 0;
#X connect 17 0 25 0;
#X connect 18 0 26 0;
#X connect 19 0 44 0;
#X connect 27 0 95 0;
#X connect 28 0 95 1;
#X connect 29 0 95 2;
#X connect 30 0 95 3;
#X connect 31 0 95 4;
#X connect 32 0 95 5;
#X connect 33 0 95 6;
#X connect 34 0 95 7;
#X connect 35 0 104 0;
#X connect 36 0 0 0;
#X connect 37 0 1 0;
#X connect 38 0 2 0;
#X connect 39 0 6 0;
#X connect 40 0 7 0;
#X connect 41 0 8 0;
#X connect 45 0 96 0;
#X connect 46 0 96 1;
#X connect 47 0 96 2;
#X connect 48 0 96 3;
#X connect 49 0 96 4;
#X connect 50 0 96 5;
#X connect 51 0 96 6;
#X connect 52 0 96 7;
#X connect 54 0 97 0;
#X connect 55 0 97 1;
#X connect 56 0 97 2;
#X connect 57 0 97 3;
#X connect 58 0 97 4;
#X connect 59 0 97 5;
#X connect 60 0 97 6;
#X connect 61 0 97 7;
#X connect 63 0 72 0;
#X connect 64 0 72 1;
#X connect 65 0 72 2;
#X connect 66 0 72 3;
#X connect 67 0 72 4;
#X connect 68 0 72 5;
#X connect 69 0 72 6;
#X connect 70 0 72 7;
#X connect 72 0 71 0;
#X connect 73 0 82 0;
#X connect 74 0 82 1;
#X connect 75 0 82 2;
#X connect 76 0 82 3;
#X connect 77 0 82 4;
#X connect 78 0 82 5;
#X connect 79 0 82 6;
#X connect 80 0 82 7;
#X connect 82 0 81 0;
#X connect 83 0 98 0;
#X connect 84 0 98 1;
#X connect 85 0 98 2;
#X connect 86 0 98 3;
#X connect 87 0 98 4;
#X connect 88 0 98 5;
#X connect 89 0 98 6;
#X connect 90 0 98 7;
#X connect 95 0 42 0;
#X connect 96 0 53 0;
#X connect 97 0 62 0;
#X connect 98 0 91 0;
#X connect 100 0 36 0;
#X connect 100 0 37 0;
#X connect 100 0 38 0;
#X connect 100 0 39 0;
#X connect 100 0 40 0;
#X connect 100 0 41 0;
#X connect 101 0 102 0;
#X connect 102 0 103 0;
#X connect 103 0 99 0;
#X connect 104 1 36 0;
#X connect 104 2 37 0;
#X connect 104 3 38 0;
#X connect 104 4 39 0;
#X connect 104 5 40 0;
#X connect 104 6 41 0;
#X coords 0 -1 1 1 220 170 2 100 100;
