#N canvas 162 25 1278 847 12;
#X obj 208 28 inlet~;
#X obj 260 28 inlet~;
#X obj 312 28 inlet~;
#X obj 363 28 inlet~;
#X obj 414 28 inlet~;
#X obj 465 28 inlet~;
#X obj 136 29 inlet~;
#X text 78 -1 Main Signal Inlet e.g. for voice, f 18;
#X obj 103 109 V-mixer~;
#X obj 183 109 V-mixer~;
#X obj 263 109 V-mixer~;
#X obj 343 109 V-mixer~;
#X obj 423 109 V-mixer~;
#X obj 503 109 V-mixer~;
#X text 236 10 Audio inlet for sig2 of mixers;
#X obj 574 28 inlet;
#X obj 523 57 unpack f f f f f f f;
#X text 618 27 Reset all Inlet;
#X obj 523 28 inlet;
#X obj 600 476 pack f f f f f f f;
#X obj 498 460 bng 15 250 50 0 empty empty empty 17 7 0 10 -262144
-1 -1;
#X obj 600 503 outlet;
#X text 648 505 Slider values outlet (ignore first digit);
#X text 521 8 Slider values inlet;
#X obj 103 491 outlet~;
#X obj 183 491 outlet~;
#X obj 263 490 outlet~;
#X obj 343 490 outlet~;
#X obj 423 490 outlet~;
#X obj 503 490 outlet~;
#X text 210 520 Mixed signal outles;
#X connect 0 0 8 1;
#X connect 1 0 9 1;
#X connect 2 0 10 1;
#X connect 3 0 11 1;
#X connect 4 0 12 1;
#X connect 5 0 13 1;
#X connect 6 0 8 0;
#X connect 8 0 9 0;
#X connect 8 0 24 0;
#X connect 8 1 19 1;
#X connect 8 1 20 0;
#X connect 9 0 10 0;
#X connect 9 0 25 0;
#X connect 9 1 19 2;
#X connect 9 1 20 0;
#X connect 10 0 11 0;
#X connect 10 0 26 0;
#X connect 10 1 19 3;
#X connect 10 1 20 0;
#X connect 11 0 12 0;
#X connect 11 0 27 0;
#X connect 11 1 19 4;
#X connect 11 1 20 0;
#X connect 12 0 13 0;
#X connect 12 0 28 0;
#X connect 12 1 19 5;
#X connect 12 1 20 0;
#X connect 13 0 29 0;
#X connect 13 1 19 6;
#X connect 13 1 20 0;
#X connect 15 0 8 3;
#X connect 15 0 13 3;
#X connect 15 0 12 3;
#X connect 15 0 11 3;
#X connect 15 0 10 3;
#X connect 15 0 9 3;
#X connect 16 1 8 2;
#X connect 16 2 9 2;
#X connect 16 3 10 2;
#X connect 16 4 11 2;
#X connect 16 5 12 2;
#X connect 16 6 13 2;
#X connect 18 0 16 0;
#X connect 19 0 21 0;
#X connect 20 0 19 0;
#X coords 0 -1 1 1 483 335 2 100 100;
