#N canvas 123 139 258 645 12;
#X floatatom 27 522 5 0 0 0 - - -;
#X obj 27 497 -;
#X floatatom 27 471 5 0 0 0 - - -;
#X msg 27 446 1;
#X obj 62 446 t b f;
#X obj 84 573 +~;
#X obj 128 545 *~;
#X obj 56 546 *~;
#X floatatom 181 498 5 0 0 0 - - -;
#X obj 84 600 outlet~;
#X obj 151 399 bng 15 250 50 0 empty empty empty 17 7 0 10 -262144
-1 -1;
#X text 111 398 RESET;
#X obj 209 381 inlet;
#X obj 128 497 inlet~;
#X obj 74 497 inlet~;
#X obj 26 85 loadbang;
#X obj 46 109 f \$1;
#X text 128 358 100%;
#X obj 111 151 vsl 15 230 0 1 0 0 empty empty empty 0 -9 0 10 -262144
-1 -1 0 1;
#X text 115 191 PROPORTIONS, f 1;
#X text 128 369 sig1;
#X text 128 148 100% sig2, f 4;
#X text 126 134 __;
#X text 125 369 __;
#X text 101 103 __________;
#X text 101 377 __________;
#X floatatom 112 126 5 0 0 0 - - -;
#X text 126 251 __;
#X text 143 257 50%;
#X text 8 601 <- Signal1;
#X text 141 601 Signal2 ->;
#X obj 188 131 inlet;
#X obj 186 444 outlet;
#X connect 0 0 7 0;
#X connect 1 0 0 0;
#X connect 2 0 1 0;
#X connect 3 0 2 0;
#X connect 4 0 2 0;
#X connect 4 1 1 1;
#X connect 5 0 9 0;
#X connect 6 0 5 1;
#X connect 7 0 5 0;
#X connect 8 0 6 1;
#X connect 10 0 16 0;
#X connect 12 0 10 0;
#X connect 13 0 6 0;
#X connect 14 0 7 1;
#X connect 15 0 16 0;
#X connect 15 0 3 0;
#X connect 16 0 18 0;
#X connect 18 0 4 0;
#X connect 18 0 8 0;
#X connect 18 0 26 0;
#X connect 18 0 32 0;
#X connect 31 0 18 0;
#X coords 0 -1 1 1 75 320 1 100 100;
