#N canvas 43 25 677 847 12;
#X obj 128 30 loadbang;
#X obj 128 60 bng 15 250 50 0 empty empty empty 17 7 0 10 -262144 -1
-1;
#X obj 64 99 delay 500;
#X msg 64 122 start;
#X msg 147 121 open speech.wav;
#X obj 147 155 readsf~;
#X obj 260 335 wsprobe~;
#X obj 147 292 *~;
#X obj 180 211 LFO~ 10 1;
#X obj 385 360 *~;
#X obj 403 334 sig~;
#X floatatom 403 308 5 0 0 0 - - -;
#X obj 406 285 hsl 128 15 0 1 0 0 empty empty empty -2 -8 0 10 -262144
-1 -1 10300 1;
#X text 443 264 Feedback;
#X obj 91 360 +~;
#X obj 110 473 output~;
#X obj 173 185 r~ \$0-feedback;
#X obj 385 387 s~ \$0-feedback;
#X obj 146 262 +~;
#X obj 157 335 output~;
#X connect 0 0 1 0;
#X connect 1 0 2 0;
#X connect 1 0 4 0;
#X connect 2 0 3 0;
#X connect 3 0 5 0;
#X connect 4 0 5 0;
#X connect 5 0 14 0;
#X connect 5 0 18 0;
#X connect 5 1 1 0;
#X connect 7 0 14 1;
#X connect 7 0 19 0;
#X connect 7 0 19 1;
#X connect 8 0 7 1;
#X connect 9 0 17 0;
#X connect 10 0 9 1;
#X connect 11 0 10 0;
#X connect 12 0 11 0;
#X connect 14 0 9 0;
#X connect 14 0 15 0;
#X connect 14 0 15 1;
#X connect 16 0 18 1;
#X connect 18 0 7 0;
