#N canvas 720 25 720 847 12;
#X obj 128 30 loadbang;
#X obj 128 60 bng 15 250 50 0 empty empty empty 17 7 0 10 -262144 -1
-1;
#X obj 64 99 delay 500;
#X msg 64 122 start;
#X msg 147 121 open speech.wav;
#X obj 147 155 readsf~;
#X obj 147 420 output~;
#X obj 260 419 wsprobe~;
#X obj 163 188 delwrite~ delayline 1000;
#X obj 147 376 +~;
#X obj 335 409 *~;
#X obj 353 383 sig~;
#X floatatom 353 357 5 0 0 0 - - -;
#X obj 356 334 hsl 128 15 0 1 0 0 empty empty empty -2 -8 0 10 -262144
-1 -1 0 1;
#X text 393 313 Feedback;
#X obj 426 486 output~;
#X obj 165 332 vd~ delayline;
#X obj 165 299 sig~;
#X floatatom 165 271 5 0 0 0 - - -;
#X obj 335 436 s~ \$0-feedback;
#X obj 213 158 r~ \$0-feedback;
#X connect 0 0 1 0;
#X connect 1 0 2 0;
#X connect 1 0 4 0;
#X connect 2 0 3 0;
#X connect 3 0 5 0;
#X connect 4 0 5 0;
#X connect 5 0 9 0;
#X connect 5 0 8 0;
#X connect 5 1 1 0;
#X connect 9 0 6 0;
#X connect 9 0 6 1;
#X connect 9 0 7 0;
#X connect 9 0 10 0;
#X connect 10 0 15 0;
#X connect 10 0 19 0;
#X connect 11 0 10 1;
#X connect 12 0 11 0;
#X connect 13 0 12 0;
#X connect 16 0 9 1;
#X connect 17 0 16 0;
#X connect 18 0 17 0;
#X connect 20 0 8 0;
