#N canvas 13 207 471 525 12;
#X obj 128 30 loadbang;
#X obj 128 60 bng 15 250 50 0 empty empty empty 17 7 0 10 -262144 -1
-1;
#X obj 64 99 delay 500;
#X msg 64 122 start;
#X msg 147 121 open speech.wav;
#X obj 147 155 readsf~;
#X obj 147 450 output~;
#X obj 260 449 wsprobe~;
#X obj 168 297 sig~;
#X obj 163 188 delwrite~ delayline 1000;
#X obj 168 328 vd~ delayline;
#X floatatom 168 269 5 0 0 0 - - -;
#X obj 171 244 hsl 128 15 1 1000 1 0 empty empty empty -2 -8 0 10 -262144
-1 -1 0 1;
#X text 180 214 Delay [1 - 1000msecs];
#X obj 147 355 VFX-mixer;
#X connect 0 0 1 0;
#X connect 1 0 2 0;
#X connect 1 0 4 0;
#X connect 2 0 3 0;
#X connect 3 0 5 0;
#X connect 4 0 5 0;
#X connect 5 0 9 0;
#X connect 5 0 14 0;
#X connect 5 1 1 0;
#X connect 8 0 10 0;
#X connect 10 0 14 1;
#X connect 11 0 8 0;
#X connect 12 0 11 0;
#X connect 14 0 6 0;
#X connect 14 0 6 1;
#X connect 14 0 7 0;
