#N canvas 33 63 450 635 12;
#X obj 128 30 loadbang;
#X obj 128 60 bng 15 250 50 0 empty empty empty 17 7 0 10 -262144 -1
-1;
#X obj 64 99 delay 500;
#X msg 64 122 start;
#X msg 147 121 open speech.wav;
#X obj 147 155 readsf~;
#X obj 147 375 output~;
#X obj 260 374 wsprobe~;
#X obj 147 328 bp~;
#X floatatom 165 302 5 0 0 0 - - -;
#X floatatom 156 239 5 0 0 0 - - -;
#X obj 168 279 hsl 128 15 0 100 0 0 empty empty empty -2 -8 0 10 -262144
-1 -1 0 1;
#X obj 159 217 hsl 128 15 0 10000 0 0 empty empty empty -2 -8 0 10
-262144 -1 -1 0 1;
#X text 159 186 centre-frequency [0 - 10 \, 000Hz], f 18;
#X text 166 260 Q [0 - 100];
#X connect 0 0 1 0;
#X connect 1 0 2 0;
#X connect 1 0 4 0;
#X connect 2 0 3 0;
#X connect 3 0 5 0;
#X connect 4 0 5 0;
#X connect 5 0 8 0;
#X connect 5 1 1 0;
#X connect 8 0 6 0;
#X connect 8 0 6 1;
#X connect 8 0 7 0;
#X connect 9 0 8 2;
#X connect 10 0 8 1;
#X connect 11 0 9 0;
#X connect 12 0 10 0;
