#N canvas 33 63 450 635 12;
#X obj 128 30 loadbang;
#X obj 128 60 bng 15 250 50 0 empty empty empty 17 7 0 10 -262144 -1
-1;
#X obj 64 99 delay 500;
#X msg 64 122 start;
#X msg 147 121 open speech.wav;
#X obj 147 155 readsf~;
#X obj 147 308 output~;
#X obj 260 307 wsprobe~;
#X floatatom 172 237 5 0 0 0 - - -;
#X obj 175 214 hsl 128 15 0 10000 0 0 empty empty empty -2 -8 0 10
-262144 -1 -1 0 1;
#X obj 147 261 hip~;
#X text 175 182 cut-off_frequency [0 - 10 \, 0 Hz], f 18;
#X connect 0 0 1 0;
#X connect 1 0 2 0;
#X connect 1 0 4 0;
#X connect 2 0 3 0;
#X connect 3 0 5 0;
#X connect 4 0 5 0;
#X connect 5 0 10 0;
#X connect 5 1 1 0;
#X connect 8 0 10 1;
#X connect 9 0 8 0;
#X connect 10 0 6 0;
#X connect 10 0 6 1;
#X connect 10 0 7 0;
