#N canvas 0 25 720 847 12;
#X obj 128 30 loadbang;
#X obj 128 60 bng 15 250 50 0 empty empty empty 17 7 0 10 -262144 -1
-1;
#X obj 64 99 delay 500;
#X msg 64 122 start;
#X msg 147 121 open speech.wav;
#X obj 147 155 readsf~;
#X obj 145 479 output~;
#X obj 260 468 wsprobe~;
#X obj 147 425 -~;
#X obj 147 396 *~;
#X obj 200 395 *~;
#X obj 147 363 hilbert~;
#X obj 222 363 cos~;
#X obj 282 363 cos~;
#X obj 282 341 +~ -0.25;
#X obj 222 308 phasor~;
#X obj 222 263 sig~;
#X floatatom 222 237 5 0 0 0 - - -;
#X obj 225 211 hsl 128 15 -1000 1000 0 0 empty empty empty -2 -8 0
10 -262144 -1 -1 6350 1;
#X msg 222 156 0;
#X obj 475 123 LFO~;
#X text 239 179 Frequency Shift [-1000 - 1000];
#X obj 294 283 +~;
#X obj 478 247 *~;
#X text 474 62 The LFO controls frequency oscillations around the frequency
selected on the shift slider, f 30;
#X connect 0 0 1 0;
#X connect 0 0 19 0;
#X connect 1 0 2 0;
#X connect 1 0 4 0;
#X connect 2 0 3 0;
#X connect 3 0 5 0;
#X connect 4 0 5 0;
#X connect 5 0 11 0;
#X connect 5 1 1 0;
#X connect 8 0 6 0;
#X connect 8 0 6 1;
#X connect 8 0 7 0;
#X connect 9 0 8 0;
#X connect 10 0 8 1;
#X connect 11 0 9 0;
#X connect 11 1 10 0;
#X connect 12 0 9 1;
#X connect 13 0 10 1;
#X connect 14 0 13 0;
#X connect 15 0 12 0;
#X connect 15 0 14 0;
#X connect 16 0 22 0;
#X connect 17 0 16 0;
#X connect 18 0 17 0;
#X connect 19 0 18 0;
#X connect 20 0 23 0;
#X connect 20 2 23 1;
#X connect 22 0 15 0;
#X connect 23 0 22 1;
