#N canvas 0 25 720 847 12;
#X obj 128 30 loadbang;
#X obj 128 60 bng 15 250 50 0 empty empty empty 17 7 0 10 -262144 -1
-1;
#X obj 64 99 delay 500;
#X msg 64 122 start;
#X msg 147 121 open speech.wav;
#X obj 147 155 readsf~;
#X obj 147 498 output~;
#X obj 260 497 wsprobe~;
#X obj 165 323 vd~ delayline;
#X obj 377 91 LFO~ 40 0.6;
#X obj 142 392 H-mixer 0.5;
#X obj 163 188 delwrite~ delayline 1000;
#X obj 471 233 sig~;
#X obj 376 255 +~;
#X obj 550 251 * 10;
#X obj 344 301 *~;
#X text 344 37 This will vary the delay between 0 and 20ms which is
typical of a flanger, f 36;
#X obj 342 567 *~;
#X obj 360 541 sig~;
#X floatatom 360 515 5 0 0 0 - - -;
#X obj 363 492 hsl 128 15 0 1 0 0 empty empty empty -2 -8 0 10 -262144
-1 -1 0 1;
#X text 400 471 Feedback;
#X obj 433 644 output~;
#X obj 342 594 s~ \$0-feedback;
#X obj 221 165 r~ \$0-feedback;
#X connect 0 0 1 0;
#X connect 1 0 2 0;
#X connect 1 0 4 0;
#X connect 2 0 3 0;
#X connect 3 0 5 0;
#X connect 4 0 5 0;
#X connect 5 0 10 0;
#X connect 5 1 1 0;
#X connect 8 0 10 1;
#X connect 9 0 13 0;
#X connect 9 2 12 0;
#X connect 9 2 14 0;
#X connect 10 0 6 0;
#X connect 10 0 6 1;
#X connect 10 0 17 0;
#X connect 12 0 13 1;
#X connect 13 0 15 0;
#X connect 14 0 15 1;
#X connect 15 0 8 0;
#X connect 17 0 22 0;
#X connect 17 0 23 0;
#X connect 18 0 17 1;
#X connect 19 0 18 0;
#X connect 20 0 19 0;
#X connect 24 0 11 0;
