#N canvas 0 25 1440 847 12;
#X obj 106 105 input-panel~;
#X obj 106 222 FX-board~;
#X obj 582 154 mixing-board-ex~;
#X text 862 183 H/L-PASS;
#X text 855 203 BAND-PASS;
#X text 883 223 DELAY;
#X text 869 243 FLANGER;
#X text 869 262 VIBRATO;
#X text 869 283 TREMOLO;
#X text 862 302 RING-MOD;
#X text 883 162 INPUT;
#X obj 898 792 s~ \$0-flangfdbck;
#X obj 1018 793 s~ \$0-tremfdbck;
#X obj 849 770 s~ \$0-dlyfdbck;
#X obj 955 770 s~ \$0-vibfdbck;
#X obj 1061 770 s~ \$0-ringfdbck;
#X obj 572 77 r~ \$0-BP;
#X obj 498 77 r~ \$0-HLP;
#X obj 944 79 r~ \$0-tremolo;
#X obj 738 79 r~ \$0-flanger;
#X obj 1047 79 r~ \$0-ringmod;
#X obj 645 79 r~ \$0-delay;
#X obj 841 79 r~ \$0-vibrato;
#X obj 132 768 s~ \$0-HLP;
#X obj 206 768 s~ \$0-BP;
#X obj 279 770 s~ \$0-delay;
#X obj 372 770 s~ \$0-flanger;
#X obj 475 770 s~ \$0-vibrato;
#X obj 578 770 s~ \$0-tremolo;
#X obj 681 770 s~ \$0-ringmod;
#X obj 232 52 r~ \$0-dlyfdbck;
#X obj 251 74 r~ \$0-flangfdbck;
#X obj 338 52 r~ \$0-vibfdbck;
#X obj 371 75 r~ \$0-tremfdbck;
#X obj 444 51 r~ \$0-ringfdbck;
#X obj 791 804 outlet~;
#X text 638 178 ====| MIXING BOARD |====;
#X text 116 107 ==| INPUT | ==;
#X text 120 232 ==| FX |==;
#X obj 362 105 cnv 15 214 111 empty empty empty 20 12 0 14 -233017
-66577 0;
#X obj 574 105 cnv 15 491 44 empty empty RobBowland 395 13 0 15 -228856
-262144 0;
#X text 583 665 =| FEEDBACK |=;
#X connect 0 0 1 0;
#X connect 0 0 2 0;
#X connect 0 0 2 1;
#X connect 1 0 23 0;
#X connect 1 1 24 0;
#X connect 1 2 25 0;
#X connect 1 3 26 0;
#X connect 1 4 27 0;
#X connect 1 5 28 0;
#X connect 1 6 29 0;
#X connect 2 5 35 0;
#X connect 2 9 13 0;
#X connect 2 10 11 0;
#X connect 2 11 14 0;
#X connect 2 12 12 0;
#X connect 2 13 15 0;
#X connect 16 0 2 3;
#X connect 17 0 2 2;
#X connect 18 0 2 7;
#X connect 19 0 2 5;
#X connect 20 0 2 8;
#X connect 21 0 2 4;
#X connect 22 0 2 6;
#X connect 30 0 1 1;
#X connect 31 0 1 2;
#X connect 32 0 1 3;
#X connect 33 0 1 4;
#X connect 34 0 1 5;
#X coords 0 -1 1 1 970 655 2 100 100;
